<svg xmlns="http://www.w3.org/2000/svg" viewBox="0 0 256 256"><path d="M226.84,536.3V513.84a9,9,0,0,0-9-9h-9a9,9,0,0,0-9-9H195.4V406a27,27,0,0,0-27-27h-53.9a44.71,44.71,0,0,0,9-26.93V319.48A9,9,0,0,0,119,302.7H38.16a9,9,0,0,0-4.51,16.78v32.65A44.77,44.77,0,0,0,45,382a8.94,8.94,0,0,0,0,12.19A44.86,44.86,0,0,0,34.55,433v0a8.88,8.88,0,0,0,1.12,4.35,44.94,44.94,0,0,0,85.83,0,8.89,8.89,0,0,0,1.13-4.35v0a44.9,44.9,0,0,0-8.09-35.9h53.9a9,9,0,0,1,9,9v89.83h-4.48a9,9,0,0,0-9,9H110.05a9,9,0,0,0-5.94-8.44l5-10a9,9,0,0,0-8-13H56.139,9,0,0,0-8.05,13l5,10a9,9,0,0,0-5.94,8.44h-9a9,9,0,0,0-9,9V536.3a9,9,0,0,0,9,9H217.84A9,9,0,0,0,226.84,536.3ZM105.52,343.13H51.65V320.7h53.87ZM69.59,398.61v11.91a9,9,0,0,0,18,0V398.61A27,27,0,0,1,105.52,424H51.65A27,27,0,0,1,69.59,398.61ZM53.2,361.13H104a26.93,26.93,0,0,1-50.77,0Zm25.39,89.81a26.87,26.87,0,0,1-20-9H98.62A26.86,26.86,0,0,1,78.59,450.94Zm7.89,40.46-2.23,4.46H72.92l-2.23-4.46ZM47.16,522.84H208.84v4.46H47.16ZM74.08,69.6V213.34H64.21a9,9,0,1,0,0,18H83.06v9a9,9,0,0,0,9,9h71.88a9,9,0,0,0,9-9v-9H190a9,9,0,0,0,0-18h-8.07V69.6a9,9,0,0,0-9-9V24.7h4.47a9,9,0,0,0,0-18H78.59a9,9,0,0,0,0,18h4.47V60.6A9,9,0,0,0,74.08,69.6Zm18,143.74V195.4h71.84v17.94Zm9-44.89h53.88v9H101.06Zm53.88-18H101.06V78.6h53.88Zm0-125.75V60.6H101.06V24.7Z" fill="white" data-name="Layer 1"/></svg>