<?xml version="1.0" encoding="UTF-8" standalone="no" ?>
<!DOCTYPE svg PUBLIC "-//W3C//DTD SVG 1.1//EN" "http://www.w3.org/Graphics/SVG/1.1/DTD/svg11.dtd">
<svg xmlns="http://www.w3.org/2000/svg" xmlns:xlink="http://www.w3.org/1999/xlink" version="1.1" viewBox="0 0 1080 1080" xml:space="preserve">
<desc>Created with Fabric.js 5.2.4</desc>
<defs>
</defs>
<g transform="matrix(1 0 0 1 540 540)" id="40c1d540-ae81-4307-b9f2-e151a76b082f"  >
<rect style="stroke: none; stroke-width: 1; stroke-dasharray: none; stroke-linecap: butt; stroke-dashoffset: 0; stroke-linejoin: miter; stroke-miterlimit: 4; fill: rgb(255,255,255); fill-rule: nonzero; opacity: 1; visibility: hidden;" vector-effect="non-scaling-stroke"  x="-540" y="-540" rx="0" ry="0" width="1080" height="1080" />
</g>
<g transform="matrix(1 0 0 1 540 540)" id="3ede165f-13a7-4319-836f-97fa0e58260d"  >
</g>
<g transform="matrix(1.33 0 0 1.33 540 540)"  >
<path style="stroke: none; stroke-width: 1; stroke-dasharray: none; stroke-linecap: butt; stroke-dashoffset: 0; stroke-linejoin: miter; stroke-miterlimit: 4; fill: rgb(255,255,255); fill-rule: nonzero; opacity: 1;" vector-effect="non-scaling-stroke"  transform=" translate(-350, -280)" d="M 596.5 144.51 C 576.777 129.53 547.086 130.971 529.199 133.709 C 531.4450999999999 129.9238 533.574 126.4004 535.5387999999999 123.22500000000001 C 541.8707999999999 113.01 546.3907999999999 104.60400000000001 542.3473999999999 96.95500000000001 C 537.6676999999999 88.10730000000001 525.7383999999998 87.22840000000001 501.02339999999987 86.20100000000001 L 126.51339999999988 86.20100000000001 C 102.13839999999988 87.2244 90.21239999999987 88.1033 85.53339999999989 96.95500000000001 C 81.49039999999988 104.60340000000001 86.0099599999999 113.01000000000002 92.35369999999989 123.22500000000001 C 130.3616999999999 184.561 225.23369999999989 366.445 226.1836999999999 368.285 L 226.4180799999999 368.69516000000004 C 230.1485799999999 374.94906000000003 231.6836799999999 380.10916000000003 230.61727999999988 382.86716000000007 C 229.43757999999988 385.9452600000001 223.9805799999999 387.63666000000006 220.37927999999988 388.7577600000001 L 219.91443999999987 388.90229000000005 C 208.07443999999987 392.56639000000007 189.33243999999988 396.23819000000003 171.21143999999987 399.75429 C 125.63343999999987 408.60199 113.69143999999986 411.36329 113.48443999999986 421.80129000000005 C 113.43365899999986 424.43799000000007 114.48833999999987 427.00439000000006 116.44143999999986 429.00829000000004 C 119.12893999999986 431.74269000000004 125.08593999999985 437.80129000000005 195.46843999999987 440.83629 C 197.80433999999988 450.53549000000004 205.38643999999988 473.80529 224.60943999999986 473.80529 L 403.2494399999998 473.80529 C 422.31143999999983 473.80529 429.92943999999983 450.95729 432.3314399999998 441.07829000000004 C 434.79623999999984 441.004071 437.2533399999998 440.91032 439.6791399999998 440.78532 C 503.6051399999998 437.94552 514.3821399999998 432.69942000000003 514.3821399999998 421.94132 C 514.3821399999998 411.38632 502.4131399999998 408.62532000000004 456.65513999999985 399.73032 C 438.5261399999998 396.20692 419.78013999999985 392.56622 407.9401399999998 388.89832 L 407.47529999999983 388.75379000000004 C 403.8697999999998 387.63269 398.42449999999985 385.94129000000004 397.24829999999986 382.86319000000003 C 396.18969999999985 380.10149 397.72485999999986 374.94519 401.46709999999985 368.69119 L 401.68584999999985 368.28103 C 402.0491299999998 367.59353 415.7518499999998 341.32803 434.70884999999987 305.57403 C 441.83384999999987 303.74203 482.08384999999987 293.01203 523.0138499999998 275.19903 C 584.7168499999998 248.36703 615.9978499999999 219.35903 615.9978499999999 188.98403 C 615.9978499999999 169.28903 609.4353499999999 154.33202999999997 596.4978499999999 144.50703 z M 403.26 457.67 L 224.62 457.67 C 219.6981 457.67 215.6864 450.58410000000003 213.163 443.64300000000003 L 414.733 443.64300000000003 C 412.1314 450.70160000000004 408.03770000000003 457.67 403.26 457.67 z M 387.506 360.627 C 380.9591 371.67400000000004 379.22479999999996 380.83 382.2091 388.63100000000003 C 386.1896 399.014 396.94309999999996 402.36100000000005 402.7211 404.151 L 403.1586 404.276 C 415.8576 408.2369 435.0376 411.9479 453.5886 415.565 C 462.7566 417.3462 473.6436 419.4517 482.6506 421.4791 C 462.6626 423.97130000000004 421.0096 426.4166 334.55060000000003 426.4166 L 323.54260000000005 426.4166 C 318.6754 426.4166 315.2653 426.4166 313.87850000000003 426.467381 C 313.86678200000006 426.467381 308.4019 426.494725 299.3235 426.494725 C 222.6245 426.494725 172.14350000000002 424.197825 146.54350000000002 421.213525 C 155.28960000000004 419.260425 165.57850000000002 417.252625 174.28950000000003 415.569025 C 192.83650000000003 411.975225 212.00450000000004 408.237025 224.69950000000003 404.280025 L 225.14091000000002 404.155025 C 230.91821000000002 402.373825 241.68391000000003 399.02612500000004 245.67191000000003 388.63502500000004 C 248.65241000000003 380.83422500000006 246.93361000000002 371.67802500000005 240.36721000000003 360.631025 C 239.90237000000002 359.752115 237.97661000000002 356.06072500000005 234.90631000000002 350.197025 L 268.54731000000004 350.197025 C 272.94181000000003 350.197025 276.51211000000006 346.622825 276.51211000000006 342.255625 C 276.51211000000006 337.853325 272.9457100000001 334.286825 268.54731000000004 334.286825 L 226.56331000000003 334.286825 C 218.14531000000002 318.306825 206.59831000000003 296.431825 193.73131000000004 272.36082500000003 L 304.43131000000005 272.36082500000003 C 308.8180100000001 272.36082500000003 312.38441000000006 268.79442500000005 312.38441000000006 264.396025 C 312.38441000000006 260.021025 308.8180100000001 256.454625 304.43131000000005 256.454625 L 185.21131000000005 256.462438 C 173.15231000000006 233.954438 160.34831000000005 210.32543800000002 148.18831000000006 188.25943800000002 L 338.23831000000007 188.25943800000002 C 342.6406100000001 188.25943800000002 346.1914100000001 184.69303800000003 346.1914100000001 180.31803800000003 C 346.1914100000001 175.92353800000004 342.63671000000005 172.35323800000003 338.23831000000007 172.35323800000003 L 139.36831000000006 172.35323800000003 C 126.50131000000006 149.24423800000002 114.79831000000007 128.84123800000003 106.05231000000006 114.74023800000003 C 102.75541000000007 109.41603800000003 101.22421000000006 106.43553800000004 100.57571000000006 104.74413800000004 C 105.67341000000006 103.20503800000003 119.38071000000005 102.64253800000003 126.85671000000005 102.29883800000003 L 500.67671000000007 102.29883800000003 C 508.46191000000005 102.63867800000003 522.20771 103.20508800000003 527.31771 104.74413800000004 C 526.65755 106.43163800000004 525.12631 109.40823800000004 521.8411100000001 114.74023800000003 C 484.06811000000005 175.66623800000002 391.1811100000001 353.590238 387.50111000000004 360.630238 z M 516.756 260.337 C 489.38899999999995 272.259 461.75199999999995 281.08299999999997 445.18199999999996 285.923 C 468.53399999999993 242.103 496.85799999999995 189.735 518.323 152.323 C 530.932 148.8074 567.737 142.8933 586.749 157.3347 C 595.581 164.05349999999999 599.874 174.3937 599.874 188.9797 C 599.870094 211.65970000000002 570.366 237.02270000000001 516.7570000000001 260.3347 z" stroke-linecap="round" />
</g>
</svg>